<svg id="Layer_1" data-name="Layer 1" xmlns="http://www.w3.org/2000/svg" viewBox="0 0 64 64"><title>Icons 500</title><path d="M62,47a3,3,0,0,1-3,3H5a3,3,0,0,1-3-3V23H2a3,3,0,0,1,3-3H9V15a5,5,0,0,1,5-5H50a5,5,0,0,1,5,5v5h4a3,3,0,0,1,3,3h0ZM26,36a2,2,0,0,0,2,2h8a2,2,0,0,0,2-2V30a2,2,0,0,0-2-2H28a2,2,0,0,0-2,2ZM5,35a9,9,0,1,0,9-9A9,9,0,0,0,5,35ZM51,15a1,1,0,0,0-1-1H14a1,1,0,0,0-1,1v5h5a2,2,0,0,1,2-2h4a2,2,0,0,1,2,2h2a2,2,0,0,1,2-2h4a2,2,0,0,1,2,2h2a2,2,0,0,1,2-2h4a2,2,0,0,1,2,2h5ZM50,26a9,9,0,1,0,9,9A9,9,0,0,0,50,26Zm0,12a3,3,0,1,1,3-3A3,3,0,0,1,50,38ZM17,35a3,3,0,1,1-3-3A3,3,0,0,1,17,35Z" fill-rule="evenodd"/></svg>