<svg id="Layer_1" data-name="Layer 1" xmlns="http://www.w3.org/2000/svg" viewBox="0 0 64 64"><title>Icons 200</title><path d="M24.0017,34.01a9.973,9.973,0,0,1-7.0733-2.93l-4.0011-4.002a10.0042,10.0042,0,0,1,14.1465-14.15l4.0011,4.002a10.0107,10.0107,0,0,1,1.797,11.7026l2.5073,2.5081a10.0051,10.0051,0,0,1,11.7,1.7972l4.0012,4.002A10.0043,10.0043,0,1,1,36.9339,51.09l-4.0011-4.002a10.0118,10.0118,0,0,1-1.7969-11.7027l-2.5076-2.508A9.9993,9.9993,0,0,1,24.0017,34.01ZM36.47,43.55l4.0009,4.002a5.0015,5.0015,0,0,0,7.0724-7.0739l-4.0011-4.002a4.9741,4.9741,0,0,0-4.2278-1.3992l3.8136,3.8146a3.0009,3.0009,0,1,1-4.2434,4.2443l-3.8135-3.8146A4.9764,4.9764,0,0,0,36.47,43.55ZM27.5381,20.4681l-4.0009-4.002a5.002,5.002,0,1,0-7.0732,7.0746l4.0011,4.0021a4.7467,4.7467,0,0,0,4.2283,1.3988L20.88,25.1271a3.0008,3.0008,0,1,1,4.2432-4.2444l3.8137,3.8148A4.9781,4.9781,0,0,0,27.5381,20.4681Z" fill-rule="evenodd"/></svg>